<?xml version="1.0" standalone="no"?>
<!DOCTYPE svg PUBLIC "-//W3C//DTD SVG 20010904//EN"
 "http://www.w3.org/TR/2001/REC-SVG-20010904/DTD/svg10.dtd">
<svg version="1.0" xmlns="http://www.w3.org/2000/svg"
 width="120.000000pt" height="23.000000pt" viewBox="0 0 120.000000 23.000000"
 preserveAspectRatio="xMidYMid meet">

<g transform="translate(0.000000,23.000000) scale(0.100000,-0.100000)"
fill="#000000" stroke="none">
<path d="M99 168 c-5 -57 -3 -106 4 -122 7 -15 17 -17 54 -13 25 3 49 11 54
18 5 8 9 40 9 72 l0 57 -60 0 c-41 0 -60 -4 -61 -12z m109 -45 c-3 -41 -6 -48
-28 -54 -14 -4 -18 -7 -10 -8 10 -1 11 -4 3 -12 -6 -6 -21 -9 -34 -7 -22 3
-24 8 -24 66 l-1 62 49 0 48 0 -3 -47z"/>
<path d="M168 143 c7 -3 16 -2 19 1 4 3 -2 6 -13 5 -11 0 -14 -3 -6 -6z"/>
<path d="M168 123 c7 -3 16 -2 19 1 4 3 -2 6 -13 5 -11 0 -14 -3 -6 -6z"/>
<path d="M168 103 c7 -3 16 -2 19 1 4 3 -2 6 -13 5 -11 0 -14 -3 -6 -6z"/>
<path d="M168 83 c7 -3 16 -2 19 1 4 3 -2 6 -13 5 -11 0 -14 -3 -6 -6z"/>
<path d="M292 164 c-34 -23 -28 -92 9 -113 17 -9 33 -11 45 -6 16 7 14 9 -15
14 -38 7 -55 39 -40 79 7 17 16 22 44 22 22 0 34 4 30 10 -9 15 -48 12 -73 -6z"/>
<path d="M910 160 c-41 -41 -12 -120 44 -120 14 0 28 5 31 10 4 6 -6 10 -22
10 -36 0 -53 16 -53 50 0 34 17 50 53 50 16 0 26 4 22 10 -10 17 -54 11 -75
-10z"/>
<path d="M1005 159 c17 -54 42 -111 49 -112 5 -1 19 27 32 63 28 76 26 70 15
70 -5 0 -18 -26 -29 -57 l-19 -58 -17 52 c-17 52 -46 91 -31 42z"/>
<path d="M671 149 c-6 -11 -7 -19 -2 -19 6 0 11 -19 13 -42 2 -34 7 -43 23
-46 18 -2 18 -2 3 8 -21 13 -25 77 -5 82 9 2 8 7 -4 19 -15 15 -17 15 -28 -2z"/>
<path d="M232 108 c4 -67 22 -65 26 2 2 40 0 50 -13 50 -13 0 -15 -10 -13 -52z
m15 -25 c-3 -10 -5 -4 -5 12 0 17 2 24 5 18 2 -7 2 -21 0 -30z"/>
<path d="M390 87 c0 -29 4 -46 10 -42 6 3 10 22 10 41 0 27 5 37 23 44 19 8
18 9 -10 7 -32 -1 -33 -2 -33 -50z"/>
<path d="M472 128 c-28 -28 -2 -88 38 -88 30 0 33 18 3 22 -38 4 -43 28 -5 28
36 0 44 8 31 31 -11 21 -49 25 -67 7z m56 -15 c2 -8 -6 -13 -22 -13 -25 0 -33
10 -19 24 10 10 36 3 41 -11z"/>
<path d="M603 133 c34 -5 37 -33 3 -33 -13 0 -29 -7 -36 -16 -21 -24 7 -46 48
-38 27 5 32 11 32 34 0 48 -9 60 -44 59 -30 -2 -30 -2 -3 -6z m27 -52 c0 -5
-7 -14 -15 -21 -18 -15 -42 1 -31 19 8 13 46 15 46 2z"/>
<path d="M744 126 c-3 -8 -4 -27 -2 -42 4 -35 50 -57 71 -35 10 11 8 13 -11 8
-14 -3 -29 1 -39 11 -16 16 -14 17 21 20 32 3 37 6 34 25 -2 17 -11 23 -36 25
-21 2 -34 -2 -38 -12z m56 -11 c0 -9 -9 -15 -25 -15 -18 0 -23 4 -19 15 4 8
15 15 25 15 10 0 19 -7 19 -15z"/>
</g>
</svg>
